<?xml version="1.0" encoding="UTF-8"?>
<!-- Created with Inkscape (http://www.inkscape.org/) -->
<svg width="2e3" height="2e3" version="1.1" viewBox="0 0 529.17 529.17" xml:space="preserve" xmlns="http://www.w3.org/2000/svg"><path d="m205.44 506.03c-29-2.2152-54.383-18.895-66.478-43.686-1.7806-3.6495-4.3725-10.561-4.7849-12.759-0.1331-0.70945 0.0279-0.63349-3.6239-1.7102-8.5534-2.522-16.895-6.4401-24.445-11.482-5.2652-3.5159-9.1958-6.7645-13.936-11.518-4.8088-4.8221-8.1743-8.9451-11.75-14.395-11.818-18.012-16.772-39.472-14.08-60.994 0.22976-1.8368 0.73909-5.0948 0.96351-6.1633 0.08427-0.40122-0.03228-0.49962-1.8986-1.6028-6.6254-3.9162-11.985-8.1109-17.832-13.957-5.0959-5.0945-8.0577-8.7048-11.773-14.351-12.285-18.668-17.217-40.97-13.977-63.199 2.3958-16.437 9.4141-32.016 20.354-45.182 2.1841-2.6285 8.3979-8.835 11.061-11.048 3.946-3.2792 8.0273-6.169 12.333-8.7325 1.5724-0.93618 1.8188-1.1386 1.7473-1.4351-0.04579-0.18984-0.26664-1.4721-0.4908-2.8495-2.4815-15.249-1.103-30.769 4.007-45.114 10.02-28.128 33.192-49.499 62.246-57.409 0.94598-0.25754 1.0005-0.29972 1.1047-0.85515 0.19303-1.0289 1.8586-5.9803 2.7727-8.2425 7.9334-19.634 24.144-35.293 44.534-43.02 6.203-2.3506 12.886-4.0064 19.504-4.8322 7.4514-0.92982 15.611-0.87427 22.509 0.15326 15.704 2.3392 29.27 9.4101 38.457 20.045 0.80609 0.93308 1.509 1.6965 1.562 1.6965 0.053 0 0.75606-0.76411 1.5623-1.698 8.8258-10.223 21.822-17.22 36.73-19.775 4.8814-0.8365 6.7636-0.97587 13.249-0.98106 7.1625-0.0057 11.102 0.33823 16.804 1.4672 16.055 3.1789 30.279 10.658 41.448 21.794 8.7583 8.7323 14.907 18.736 18.621 30.295 0.44255 1.3774 0.85525 2.7398 0.91711 3.0276 0.0619 0.28779 0.17252 0.56037 0.24591 0.60573 0.0734 0.04536 1.4674 0.47616 3.0978 0.95733 5.5702 1.6439 9.8603 3.3529 15.244 6.0728 9.2553 4.6758 16.741 10.151 23.995 17.55 3.2642 3.3295 5.439 5.8547 8.0283 9.3216 9.0218 12.079 14.946 26.376 17.085 41.231 1.0512 7.2988 1.1714 15.866 0.32642 23.266-0.22613 1.9806-0.96994 6.7994-1.1379 7.3717-0.057 0.1941 0.35573 0.51517 1.5836 1.232 3.6356 2.1225 8.5155 5.5491 12.001 8.4271 15.874 13.107 26.974 31.641 31.102 51.93 1.1317 5.5632 1.6015 9.9714 1.7274 16.207 0.12893 6.3892-0.24565 11.606-1.2458 17.349-4.56 26.186-20.376 49.109-43.26 62.696-1.4492 0.86046-1.9617 1.2458-1.9067 1.4336 0.16663 0.56891 0.91123 5.3967 1.1361 7.366 0.8713 7.6315 0.71971 16.319-0.41581 23.832-3.4541 22.852-15.588 43.652-33.751 57.854-9.8985 7.7405-20.328 12.973-32.674 16.395l-0.92529 0.25641-0.33646 1.161c-2.5955 8.956-6.5357 16.962-11.864 24.104-13.911 18.649-35.602 30.187-60.019 31.925-3.4319 0.24429-11.421 0.10448-14.472-0.25326-13.411-1.5726-24.902-6.1348-34.253-13.6-1.9328-1.5429-6.3047-5.8068-7.678-7.4881-0.47178-0.57762-0.90385-1.0502-0.96014-1.0502-0.0563 0-0.76346 0.76579-1.5715 1.7017-10.159 11.767-25.401 19.017-43.301 20.596-2.9432 0.25964-10.175 0.29243-13.219 0.0599zm13.168-24.452c8.1055-1.0082 14.956-3.6293 20.439-7.8198 1.3777-1.053 3.9856-3.6081 5.1352-5.0312 2.836-3.5107 4.994-7.9314 6.0945-12.484 1.1143-4.6102 1.0319-1.7118 1.0877-38.264l0.0504-33.056-2.3869-0.27743c-3.1203-0.36268-8.196-1.2296-11.435-1.9531-26.704-5.9646-50.248-20.687-67.493-42.203-14.187-17.7-23.123-39.628-25.403-62.337-0.46526-4.6329-0.57317-7.6362-0.57317-15.952v-8.3641l6.6649 2e-3c10.323 3e-3 15.752 0.31512 22.643 1.3004 20.619 2.9481 40.385 11.437 56.729 24.362 13.405 10.602 24.736 24.32 32.261 39.058 0.56242 1.1016 1.0589 2.0026 1.1034 2.0022 0.0444-3.5e-4 0.66244-1.1412 1.3734-2.5351 8.2915-16.258 21.993-31.835 37.536-42.673 16.292-11.361 35.399-18.565 54.883-20.694 5.4508-0.5955 7.2805-0.68128 16.521-0.77457l9.0884-0.0918-7.5e-4 8.3021c-4.1e-4 4.5662-0.0742 9.5018-0.16388 10.968-0.8862 14.482-4.1129 27.878-9.9438 41.282-1.167 2.6825-4.5133 9.2232-6.1171 11.956-18.932 32.263-51.913 53.964-88.679 58.35l-2.3869 0.28475 0.0504 33.049c0.0558 36.589-0.0271 33.713 1.1045 38.3 2.8909 11.719 11.361 20.126 23.917 23.739 4.6326 1.3331 8.6258 1.8445 14.44 1.8493 4.6856 4e-3 7.0794-0.20222 11.229-0.96671 15.336-2.8252 28.602-11.337 36.609-23.491 6.7587-10.258 9.4214-22.402 7.7407-35.304-1.4053-10.788-6.0317-21.69-12.748-30.038l-1.3485-1.6764 9.181-7.8534c5.0496-4.3194 9.2394-7.8491 9.3108-7.8439 0.18434 0.0135 1.5623 1.6966 3.3776 4.1256 9.0334 12.087 14.934 27.015 16.551 41.877 0.22897 2.1039-9e-3 1.9988 2.2664 0.99969 12.361-5.4269 23.048-14.792 30.045-26.33 7.9998-13.192 11.149-28.463 9.0287-43.786-2.6378-19.064-13.394-36.128-29.276-46.447l-1.4209-0.92322 0.3025-0.51025c0.71121-1.1996 12.363-19.911 12.475-20.032 0.14397-0.15665 1.6781 0.80343 4.6464 2.9078 7.316 5.1865 13.726 11.332 19.35 18.553 2.6602 3.4152 6.8096 9.8569 8.477 13.16 0.27141 0.53765 0.5358 0.97754 0.58754 0.97754 0.0517 0 1.0141-0.62796 2.1385-1.3955 14.042-9.585 23.954-25.163 27.072-42.552 0.81639-4.5521 0.96608-6.3551 0.97251-11.714 6e-3 -5.3722-0.16596-7.4771-0.97273-11.876-3.2628-17.789-13.246-33.298-27.647-42.95-0.81859-0.54866-1.5211-0.99757-1.561-0.99757-0.04 0-0.47555 0.7544-0.96793 1.6764-2.8097 5.2616-6.7558 11.01-11.05 16.096-2.0774 2.4609-7.1998 7.5805-9.7907 9.7855-3.9085 3.3263-10.952 8.3656-11.249 8.0472-0.11776-0.12661-11.767-18.828-12.476-20.029l-0.29531-0.50007 1.415-0.9361c7.6628-5.0695 13.907-11.297 18.875-18.826 10.239-15.516 13.555-34.7 9.1191-52.753-2.8108-11.44-8.6024-21.89-16.837-30.382-5.2166-5.3795-11.357-9.8824-18.048-13.234-1.8229-0.91322-4.8662-2.2443-4.9377-2.1596-0.0236 0.028-0.13219 0.88703-0.24123 1.909-1.7102 16.028-8.6605 32.388-19.082 44.917-3.7301 4.4842-7.4693 8.1764-11.902 11.752l-2.2988 1.8544 0.93991 1.1544c6.5535 8.0487 12.096 18.158 15.515 28.298 2.8933 8.5815 4.6954 18.969 4.7023 27.104l2e-3 1.8985h-24.397v-1.5026c0-3.2784-0.5866-8.4703-1.384-12.249-1.3552-6.4228-3.8276-13.087-6.9164-18.643-8.3918-15.095-21.797-26.107-38.449-31.583-0.94338-0.31025-1.0926-0.40993-1.0214-0.68237 0.0459-0.17547 1.597-5.4024 3.447-11.615 2.5186-8.4585 3.4246-11.296 3.6065-11.296 0.38813 8.7e-4 4.8768 1.5601 7.4323 2.5818 5.6587 2.2623 10.413 4.714 15.724 8.1089 1.2275 0.78465 2.2778 1.4266 2.3338 1.4266 0.23326 0 4.2902-2.8302 5.9365-4.1415 2.1989-1.7514 6.6946-6.228 8.3841-8.3486 7.1738-9.0043 11.4-18.89 13.138-30.73 0.36479-2.4854 0.412-11.256 0.0735-13.653-1.262-8.9342-4.3364-16.679-9.3483-23.55-8.325-11.412-21.201-19.153-35.92-21.593-4.0165-0.66595-5.9534-0.81457-10.5-0.80571-8.4191 0.01641-14.843 1.3746-21.156 4.4728-8.7874 4.3127-14.81 11.744-17.115 21.118-1.1425 4.6469-1.0578 1.4937-1.1113 41.382l-0.0482 35.969 1.767 1.6422c1.881 1.7481 5.2945 5.4035 7.4079 7.933 11.1 13.284 18.501 30.019 20.866 47.179 0.66636 4.8347 0.74578 6.2354 0.74205 13.087-4e-3 7.164-0.10933 8.711-0.97999 14.38-2.5753 16.768-9.8894 32.825-21.012 46.128-2.0835 2.492-6.8315 7.3748-9.405 9.6719-1.7531 1.5649-11.319 9.3136-11.497 9.3136-0.13168 0-9.4544-7.4922-10.825-8.6993-2.0826-1.8346-6.2606-5.9929-8.2417-8.2031-13.914-15.523-22.228-35.203-23.76-56.246-0.25352-3.4815-0.11251-12.718 0.2424-15.878 0.54009-4.8089 1.2159-8.7177 2.1989-12.719 4.2132-17.149 12.768-32.268 25.32-44.749l2.9541-2.9374-0.05-35.921c-0.0553-39.771 0.0242-36.789-1.1021-41.333-2.1704-8.7571-7.4378-15.685-15.349-20.187-4.5399-2.5837-10.083-4.3161-16.386-5.1214-3.1305-0.39994-10.191-0.39939-13.488 1e-3 -7.4076 0.89976-13.175 2.534-19.184 5.4357-6.1084 2.9499-10.307 5.9042-14.922 10.501-3.0077 2.9953-4.5677 4.8792-6.7072 8.0998-4.0408 6.0827-6.6779 12.993-7.8512 20.574-0.42227 2.7284-0.5842 9.4511-0.30247 12.557 1.0765 11.869 5.7244 23.326 13.325 32.847 1.7267 2.1629 6.2122 6.6361 8.4135 8.3904 1.7528 1.3969 5.7105 4.1338 5.9777 4.1338 0.0755 0 1.0154-0.57301 2.0886-1.2734 6.003-3.9175 12.603-7.1638 19.524-9.6037 2.5694-0.90576 3.9734-1.3293 4.0536-1.2228 0.0388 0.0515 6.6144 22.087 6.8476 22.948 0.0568 0.20955-0.25948 0.37359-1.5177 0.78711-17.278 5.6784-31.499 18.048-39.474 34.332-4.1278 8.4289-6.3911 17.399-6.7372 26.7l-0.10369 2.7871h-24.347l3.9e-4 -1.9793c1e-3 -7.076 1.5098-16.579 3.8745-24.409 3.3545-11.108 9.1713-22.104 16.367-30.941l0.96316-1.1828-0.38323-0.26736c-0.21077-0.14705-1.2557-0.96833-2.3221-1.8251-10.183-8.1809-18.688-19.483-24.125-32.057-3.3047-7.6433-5.5334-15.914-6.4224-23.832-0.14465-1.2885-0.29005-2.3706-0.3231-2.4047-0.22947-0.23636-7.4288 3.3492-10.169 5.0647-13.114 8.2095-22.982 20.464-27.882 34.627-1.5343 4.4344-2.5981 8.9389-3.2521 13.77-0.49069 3.6248-0.53351 12.041-0.07973 15.673 1.9436 15.553 8.2973 28.848 18.849 39.438 3.5844 3.5976 6.6993 6.1648 10.551 8.6954 1.4863 0.97659 1.5636 1.0545 1.3609 1.3734-0.11815 0.1859-2.9661 4.7732-6.3288 10.194s-6.1642 9.914-6.2256 9.9851c-0.0614 0.071-1.0859-0.51686-2.2768-1.3064-12.274-8.138-22.137-18.856-29.434-31.985-0.70383-1.2663-1.3145-2.3024-1.357-2.3024-0.16897 0-2.4941 1.5708-4.1865 2.8282-3.8368 2.8508-8.2393 7.0898-11.242 10.825-7.8131 9.7182-12.637 21.086-14.398 33.93-0.30803 2.2468-0.35441 3.3147-0.35441 8.1594 0 6.0523 0.18666 8.1663 1.1342 12.845 2.0556 10.15 6.2897 19.646 12.304 27.593 3.3612 4.4416 7.8516 8.9328 12.255 12.257 1.7015 1.2844 3.9617 2.8389 4.3375 2.9831 0.15549 0.0597 0.5611-0.52631 1.3178-1.9037 5.6013-10.197 12.91-19.109 21.642-26.392 3.3822-2.8207 10.025-7.5048 10.258-7.2339 0.0613 0.071 2.8622 4.5643 6.2244 9.9851s6.2109 10.009 6.3304 10.196c0.20566 0.3218 0.13286 0.39559-1.3549 1.3734-4.7653 3.1318-9.4372 7.1911-13.183 11.455-9.0597 10.312-14.451 22.501-16.222 36.677-0.45378 3.6314-0.41096 12.048 0.07973 15.673 1.9981 14.76 8.1723 27.608 18.261 37.998 5.267 5.4243 10.98 9.6612 17.478 12.962 2.7878 1.4161 5.4565 2.6117 5.5719 2.4963 0.0372-0.0372 0.18339-1.0829 0.32496-2.3239 1.5046-13.19 6.3105-26.257 13.792-37.499 2.283-3.4309 5.7066-7.9434 6.0455-7.9683 0.14332-0.0105 18.269 15.47 18.343 15.666 0.0269 0.0712-0.41127 0.69952-0.97377 1.3963-12.059 14.938-16.504 35.624-11.33 52.721 1.6744 5.5326 4.3458 10.766 7.9668 15.606 1.9846 2.653 6.4416 7.2263 9.0539 9.2902 9.3251 7.3674 20.827 11.674 33.365 12.494 1.9767 0.1292 8.3054-0.0542 10.26-0.29728zm31.83-121.63c0-0.11333-0.18319-1.2585-0.40709-2.5448-2.6131-15.012-8.4523-28.643-17.476-40.793-5.1759-6.9695-12.547-14.34-19.521-19.522-10.829-8.0447-23.187-13.688-36.317-16.586-1.8054-0.39838-6.8197-1.2967-7.238-1.2967-0.28525 0 1.2894 8.0866 2.2809 11.714 2.965 10.847 7.8798 21.232 14.326 30.272 5.0807 7.1248 11.403 13.803 18.202 19.227 11.751 9.3743 25.947 15.989 40.414 18.833 4.7043 0.92455 5.7358 1.0498 5.7358 0.69616zm29.204-0.19628c15.153-2.658 28.733-8.5262 41-17.717 6.8627-5.1419 13.878-12.172 19.013-19.054 8.0447-10.782 13.794-23.323 16.697-36.423 0.45185-2.0391 1.3631-7.2333 1.2848-7.3235-0.0916-0.10551-5.2358 0.82125-7.9614 1.4343-27.631 6.215-51.191 24.727-63.942 50.241-4.2124 8.429-7.1609 17.433-8.6243 26.336-0.18257 1.1108-0.36677 2.2196-0.40933 2.464-0.0983 0.56418-0.0384 0.56504 2.9434 0.042zm-14.551-96.024c9.3223-10.854 14.813-23.301 16.62-37.678 0.40212-3.1982 0.49093-11.076 0.16353-14.507-1.4342-15.027-7.1881-28.513-16.956-39.741-0.71511-0.822-1.3452-1.4946-1.4002-1.4946-0.055 0-0.82107 0.84038-1.7024 1.8675-9.2084 10.731-14.709 23.215-16.477 37.395-0.34804 2.7918-0.48901 10.772-0.24393 13.809 1.2234 15.159 6.912 28.786 16.828 40.309 0.83715 0.97285 1.5584 1.7688 1.6029 1.7688 0.0444 0 0.74886-0.77785 1.5654-1.7286z"/></svg>
